<svg id="svg" xmlns="http://www.w3.org/2000/svg" xmlns:xlink="http://www.w3.org/1999/xlink" width="400" height="400" viewBox="0, 0, 400,400"><g id="svgg"><path id="path0" d="M99.800 202.000 C 99.516 202.895,99.879 204.400,100.378 204.400 C 100.557 204.400,100.927 204.940,101.200 205.600 C 101.473 206.260,101.833 206.800,102.000 206.800 C 102.167 206.800,102.527 207.340,102.800 208.000 C 103.073 208.660,103.433 209.200,103.600 209.200 C 103.767 209.200,104.127 209.740,104.400 210.400 C 104.673 211.060,105.043 211.600,105.222 211.600 C 105.400 211.600,105.657 211.951,105.794 212.380 C 105.930 212.808,106.563 213.718,107.200 214.400 C 107.837 215.082,108.470 215.992,108.606 216.420 C 108.743 216.849,109.000 217.200,109.178 217.200 C 109.357 217.200,109.727 217.740,110.000 218.400 C 110.273 219.060,110.643 219.600,110.822 219.600 C 111.000 219.600,111.257 219.951,111.394 220.380 C 111.530 220.808,112.163 221.718,112.800 222.400 C 113.437 223.082,114.070 223.992,114.206 224.420 C 114.343 224.849,114.600 225.200,114.778 225.200 C 114.957 225.200,115.327 225.740,115.600 226.400 C 115.873 227.060,116.243 227.600,116.422 227.600 C 116.600 227.600,116.857 227.951,116.994 228.380 C 117.130 228.808,117.763 229.718,118.400 230.400 C 119.037 231.082,119.670 231.992,119.806 232.420 C 119.943 232.849,120.200 233.200,120.378 233.200 C 120.557 233.200,120.927 233.740,121.200 234.400 C 121.473 235.060,121.843 235.600,122.022 235.600 C 122.200 235.600,122.457 235.951,122.594 236.380 C 122.730 236.808,123.363 237.718,124.000 238.400 C 124.637 239.082,125.270 239.992,125.406 240.420 C 125.543 240.849,125.800 241.200,125.978 241.200 C 126.157 241.200,126.527 241.740,126.800 242.400 C 127.073 243.060,127.443 243.600,127.622 243.600 C 127.800 243.600,128.057 243.951,128.194 244.380 C 128.330 244.808,128.963 245.718,129.600 246.400 C 130.237 247.082,130.870 247.992,131.006 248.420 C 131.143 248.849,131.400 249.200,131.578 249.200 C 131.757 249.200,132.127 249.740,132.400 250.400 C 132.673 251.060,133.033 251.600,133.200 251.600 C 133.367 251.600,133.727 252.140,134.000 252.800 C 134.273 253.460,134.643 254.000,134.822 254.000 C 135.000 254.000,135.257 254.351,135.394 254.780 C 135.530 255.208,136.163 256.118,136.800 256.800 C 137.437 257.482,138.070 258.392,138.206 258.820 C 138.343 259.249,138.600 259.600,138.778 259.600 C 138.957 259.600,139.327 260.140,139.600 260.800 C 139.873 261.460,140.243 262.000,140.422 262.000 C 140.600 262.000,140.857 262.351,140.994 262.780 C 141.130 263.208,141.763 264.118,142.400 264.800 C 143.037 265.482,143.670 266.392,143.806 266.820 C 143.943 267.249,144.200 267.600,144.378 267.600 C 144.557 267.600,144.927 268.140,145.200 268.800 C 145.473 269.460,145.843 270.000,146.022 270.000 C 146.200 270.000,146.457 270.351,146.594 270.780 C 146.730 271.208,147.363 272.118,148.000 272.800 C 148.637 273.482,149.270 274.392,149.406 274.820 C 149.543 275.249,149.800 275.600,149.978 275.600 C 150.157 275.600,150.527 276.140,150.800 276.800 C 151.073 277.460,151.443 278.000,151.622 278.000 C 151.800 278.000,152.057 278.351,152.194 278.780 C 152.330 279.208,152.963 280.118,153.600 280.800 C 154.237 281.482,154.870 282.392,155.006 282.820 C 155.143 283.249,155.400 283.600,155.578 283.600 C 155.757 283.600,156.127 284.140,156.400 284.800 C 156.673 285.460,157.043 286.000,157.222 286.000 C 157.400 286.000,157.657 286.351,157.794 286.780 C 157.930 287.208,158.563 288.118,159.200 288.800 C 159.837 289.482,160.470 290.392,160.606 290.820 C 160.743 291.249,161.000 291.600,161.178 291.600 C 161.357 291.600,161.727 292.140,162.000 292.800 C 162.273 293.460,162.643 294.000,162.822 294.000 C 163.000 294.000,163.257 294.351,163.394 294.780 C 163.530 295.208,164.163 296.118,164.800 296.800 C 165.437 297.482,166.070 298.392,166.206 298.820 C 166.343 299.249,166.600 299.600,166.778 299.600 C 166.957 299.600,167.327 300.140,167.600 300.800 C 167.873 301.460,168.233 302.000,168.400 302.000 C 168.567 302.000,168.927 302.540,169.200 303.200 C 169.473 303.860,169.843 304.400,170.022 304.400 C 170.200 304.400,170.457 304.751,170.594 305.180 C 170.730 305.608,171.363 306.518,172.000 307.200 C 172.637 307.882,173.270 308.792,173.406 309.220 C 173.543 309.649,173.800 310.000,173.978 310.000 C 174.157 310.000,174.527 310.540,174.800 311.200 C 175.073 311.860,175.443 312.400,175.622 312.400 C 175.800 312.400,176.057 312.751,176.194 313.180 C 176.330 313.608,176.963 314.518,177.600 315.200 C 178.237 315.882,178.870 316.792,179.006 317.220 C 179.143 317.649,179.400 318.000,179.578 318.000 C 179.757 318.000,180.127 318.540,180.400 319.200 C 180.673 319.860,181.043 320.400,181.222 320.400 C 181.400 320.400,181.657 320.751,181.794 321.180 C 181.930 321.608,182.563 322.518,183.200 323.200 C 183.837 323.882,184.470 324.792,184.606 325.220 C 184.743 325.649,185.000 326.000,185.178 326.000 C 185.357 326.000,185.727 326.540,186.000 327.200 C 186.273 327.860,186.643 328.400,186.822 328.400 C 187.000 328.400,187.257 328.751,187.394 329.180 C 187.530 329.608,188.163 330.518,188.800 331.200 C 189.437 331.882,190.070 332.792,190.206 333.220 C 190.343 333.649,190.610 334.000,190.800 334.000 C 190.990 334.000,191.254 334.339,191.385 334.752 C 192.300 337.636,197.200 337.998,197.200 335.181 C 197.200 335.018,197.731 334.316,198.380 333.622 C 199.028 332.927,199.670 332.008,199.806 331.580 C 199.943 331.151,200.200 330.800,200.378 330.800 C 200.557 330.800,200.927 330.260,201.200 329.600 C 201.473 328.940,201.843 328.400,202.022 328.400 C 202.200 328.400,202.457 328.049,202.594 327.620 C 202.730 327.192,203.363 326.282,204.000 325.600 C 204.637 324.918,205.270 324.008,205.406 323.580 C 205.543 323.151,205.810 322.800,206.000 322.800 C 206.190 322.800,206.457 322.449,206.594 322.020 C 206.730 321.592,207.363 320.682,208.000 320.000 C 208.637 319.318,209.270 318.408,209.406 317.980 C 209.543 317.551,209.800 317.200,209.978 317.200 C 210.157 317.200,210.527 316.660,210.800 316.000 C 211.073 315.340,211.443 314.800,211.622 314.800 C 211.800 314.800,212.057 314.449,212.194 314.020 C 212.330 313.592,212.963 312.682,213.600 312.000 C 214.237 311.318,214.870 310.408,215.006 309.980 C 215.143 309.551,215.410 309.200,215.600 309.200 C 215.790 309.200,216.057 308.849,216.194 308.420 C 216.330 307.992,216.963 307.082,217.600 306.400 C 218.237 305.718,218.870 304.808,219.006 304.380 C 219.143 303.951,219.410 303.600,219.600 303.600 C 219.790 303.600,220.057 303.249,220.194 302.820 C 220.330 302.392,220.963 301.482,221.600 300.800 C 222.237 300.118,222.870 299.208,223.006 298.780 C 223.143 298.351,223.400 298.000,223.578 298.000 C 223.757 298.000,224.127 297.460,224.400 296.800 C 224.673 296.140,225.043 295.600,225.222 295.600 C 225.400 295.600,225.657 295.249,225.794 294.820 C 225.930 294.392,226.563 293.482,227.200 292.800 C 227.837 292.118,228.470 291.208,228.606 290.780 C 228.743 290.351,229.010 290.000,229.200 290.000 C 229.390 290.000,229.657 289.649,229.794 289.220 C 229.930 288.792,230.563 287.882,231.200 287.200 C 231.837 286.518,232.470 285.608,232.606 285.180 C 232.743 284.751,233.000 284.400,233.178 284.400 C 233.357 284.400,233.727 283.860,234.000 283.200 C 234.273 282.540,234.643 282.000,234.822 282.000 C 235.000 282.000,235.257 281.649,235.394 281.220 C 235.530 280.792,236.163 279.882,236.800 279.200 C 237.437 278.518,238.070 277.608,238.206 277.180 C 238.343 276.751,238.610 276.400,238.800 276.400 C 238.990 276.400,239.257 276.049,239.394 275.620 C 239.530 275.192,240.163 274.282,240.800 273.600 C 241.437 272.918,242.070 272.008,242.206 271.580 C 242.343 271.151,242.600 270.800,242.778 270.800 C 242.957 270.800,243.327 270.260,243.600 269.600 C 243.873 268.940,244.243 268.400,244.422 268.400 C 244.600 268.400,244.857 268.049,244.994 267.620 C 245.130 267.192,245.763 266.282,246.400 265.600 C 247.037 264.918,247.670 264.008,247.806 263.580 C 247.943 263.151,248.210 262.800,248.400 262.800 C 248.590 262.800,248.857 262.449,248.994 262.020 C 249.130 261.592,249.763 260.682,250.400 260.000 C 251.037 259.318,251.670 258.408,251.806 257.980 C 251.943 257.551,252.200 257.200,252.378 257.200 C 252.557 257.200,252.927 256.660,253.200 256.000 C 253.473 255.340,253.843 254.800,254.022 254.800 C 254.200 254.800,254.457 254.449,254.594 254.020 C 254.730 253.592,255.363 252.682,256.000 252.000 C 256.637 251.318,257.270 250.408,257.406 249.980 C 257.543 249.551,257.810 249.200,258.000 249.200 C 258.190 249.200,258.457 248.849,258.594 248.420 C 258.730 247.992,259.363 247.082,260.000 246.400 C 260.637 245.718,261.270 244.808,261.406 244.380 C 261.543 243.951,261.810 243.600,262.000 243.600 C 262.190 243.600,262.457 243.249,262.594 242.820 C 262.730 242.392,263.363 241.482,264.000 240.800 C 264.637 240.118,265.270 239.208,265.406 238.780 C 265.543 238.351,265.800 238.000,265.978 238.000 C 266.157 238.000,266.527 237.460,266.800 236.800 C 267.073 236.140,267.443 235.600,267.622 235.600 C 267.800 235.600,268.057 235.249,268.194 234.820 C 268.330 234.392,268.963 233.482,269.600 232.800 C 270.237 232.118,270.870 231.208,271.006 230.780 C 271.143 230.351,271.410 230.000,271.600 230.000 C 271.790 230.000,272.057 229.649,272.194 229.220 C 272.330 228.792,272.963 227.882,273.600 227.200 C 274.237 226.518,274.870 225.608,275.006 225.180 C 275.143 224.751,275.400 224.400,275.578 224.400 C 275.757 224.400,276.127 223.860,276.400 223.200 C 276.673 222.540,277.043 222.000,277.222 222.000 C 277.400 222.000,277.657 221.649,277.794 221.220 C 277.930 220.792,278.563 219.882,279.200 219.200 C 279.837 218.518,280.470 217.608,280.606 217.180 C 280.743 216.751,281.010 216.400,281.200 216.400 C 281.390 216.400,281.657 216.049,281.794 215.620 C 281.930 215.192,282.563 214.282,283.200 213.600 C 283.837 212.918,284.470 212.008,284.606 211.580 C 284.743 211.151,285.000 210.800,285.178 210.800 C 285.357 210.800,285.727 210.260,286.000 209.600 C 286.273 208.940,286.633 208.400,286.800 208.400 C 286.967 208.400,287.327 207.860,287.600 207.200 C 287.873 206.540,288.243 206.000,288.422 206.000 C 288.921 206.000,289.284 204.495,289.000 203.600 C 288.748 202.806,288.395 202.800,243.573 202.800 C 213.724 202.800,198.400 202.664,198.400 202.400 C 198.400 202.136,182.400 202.000,151.200 202.000 C 120.000 202.000,104.000 201.864,104.000 201.600 C 104.000 200.762,100.074 201.136,99.800 202.000 " stroke="none" fill="#dcdcdc" fill-rule="evenodd"></path><path id="path1" d="M193.215 6.161 C 193.014 6.690,192.658 7.241,192.424 7.385 C 192.189 7.530,191.639 8.437,191.200 9.400 C 190.761 10.363,190.221 11.263,190.000 11.400 C 189.779 11.537,189.239 12.437,188.800 13.400 C 188.361 14.363,187.821 15.263,187.600 15.400 C 187.379 15.537,186.839 16.437,186.400 17.400 C 185.961 18.363,185.427 19.259,185.214 19.391 C 185.001 19.523,184.274 20.787,183.600 22.200 C 182.926 23.613,182.199 24.877,181.986 25.009 C 181.773 25.141,181.239 26.037,180.800 27.000 C 180.361 27.963,179.821 28.863,179.600 29.000 C 179.379 29.137,178.839 30.037,178.400 31.000 C 177.961 31.963,177.421 32.863,177.200 33.000 C 176.979 33.137,176.439 34.037,176.000 35.000 C 175.561 35.963,175.021 36.863,174.800 37.000 C 174.579 37.137,174.039 38.037,173.600 39.000 C 173.161 39.963,172.621 40.863,172.400 41.000 C 172.179 41.137,171.639 42.037,171.200 43.000 C 170.761 43.963,170.221 44.863,170.000 45.000 C 169.779 45.137,169.239 46.037,168.800 47.000 C 168.361 47.963,167.821 48.863,167.600 49.000 C 167.379 49.137,166.839 50.037,166.400 51.000 C 165.961 51.963,165.421 52.863,165.200 53.000 C 164.979 53.137,164.439 54.037,164.000 55.000 C 163.561 55.963,163.021 56.863,162.800 57.000 C 162.579 57.137,162.039 58.037,161.600 59.000 C 161.161 59.963,160.621 60.863,160.400 61.000 C 160.179 61.137,159.639 62.037,159.200 63.000 C 158.761 63.963,158.221 64.863,158.000 65.000 C 157.779 65.137,157.239 66.037,156.800 67.000 C 156.361 67.963,155.821 68.863,155.600 69.000 C 155.379 69.137,154.839 70.037,154.400 71.000 C 153.961 71.963,153.421 72.863,153.200 73.000 C 152.979 73.137,152.439 74.037,152.000 75.000 C 151.561 75.963,151.021 76.863,150.800 77.000 C 150.579 77.137,150.039 78.037,149.600 79.000 C 149.161 79.963,148.626 80.860,148.412 80.993 C 148.197 81.125,147.716 81.901,147.344 82.717 C 146.971 83.533,146.406 84.506,146.088 84.881 C 145.051 86.104,143.600 89.312,143.600 90.382 C 143.600 91.414,147.382 99.412,148.491 100.725 C 148.805 101.096,149.738 102.794,150.564 104.497 C 151.390 106.200,152.219 107.688,152.406 107.804 C 152.592 107.919,153.670 109.897,154.800 112.200 C 155.930 114.503,157.010 116.483,157.200 116.600 C 157.390 116.717,158.470 118.697,159.600 121.000 C 160.730 123.303,161.813 125.284,162.006 125.404 C 162.199 125.523,163.096 127.141,164.000 129.000 C 164.904 130.859,165.801 132.477,165.994 132.596 C 166.187 132.716,167.270 134.697,168.400 137.000 C 169.530 139.303,170.610 141.283,170.800 141.400 C 170.990 141.517,172.070 143.497,173.200 145.800 C 174.330 148.103,175.408 150.081,175.594 150.196 C 175.781 150.312,176.610 151.800,177.436 153.503 C 178.262 155.206,179.195 156.904,179.510 157.276 C 179.824 157.648,180.872 159.529,181.839 161.456 L 183.598 164.960 181.999 163.399 C 181.120 162.540,180.400 161.644,180.400 161.406 C 180.400 161.169,179.320 159.906,178.000 158.600 C 176.680 157.294,175.600 156.034,175.600 155.800 C 175.600 155.566,174.520 154.306,173.200 153.000 C 171.880 151.694,170.800 150.434,170.800 150.200 C 170.800 149.966,169.720 148.706,168.400 147.400 C 167.080 146.094,166.000 144.835,166.000 144.602 C 166.000 144.369,164.740 142.928,163.200 141.400 C 161.660 139.872,160.400 138.431,160.400 138.198 C 160.400 137.965,159.320 136.706,158.000 135.400 C 156.680 134.094,155.600 132.834,155.600 132.600 C 155.600 132.366,154.520 131.106,153.200 129.800 C 151.880 128.494,150.800 127.234,150.800 127.000 C 150.800 126.766,149.720 125.506,148.400 124.200 C 147.080 122.894,146.000 121.635,146.000 121.402 C 146.000 121.169,144.740 119.728,143.200 118.200 C 141.660 116.672,140.400 115.231,140.400 114.998 C 140.400 114.765,139.320 113.506,138.000 112.200 C 136.680 110.894,135.600 109.635,135.600 109.402 C 135.600 109.169,134.380 107.768,132.890 106.289 L 130.180 103.600 125.914 103.600 C 123.501 103.600,121.540 103.774,121.400 104.000 C 121.264 104.220,119.644 104.400,117.800 104.400 C 115.956 104.400,114.336 104.580,114.200 104.800 C 114.064 105.020,112.444 105.200,110.600 105.200 C 108.756 105.200,107.136 105.380,107.000 105.600 C 106.864 105.820,105.244 106.000,103.400 106.000 C 101.556 106.000,99.936 106.180,99.800 106.400 C 99.664 106.620,98.044 106.800,96.200 106.800 C 94.356 106.800,92.736 106.980,92.600 107.200 C 92.464 107.420,90.844 107.600,89.000 107.600 C 87.156 107.600,85.536 107.780,85.400 108.000 C 85.264 108.220,83.644 108.400,81.800 108.400 C 79.956 108.400,78.336 108.580,78.200 108.800 C 78.064 109.020,76.444 109.200,74.600 109.200 C 72.756 109.200,71.136 109.380,71.000 109.600 C 70.864 109.820,69.244 110.000,67.400 110.000 C 65.556 110.000,63.936 110.180,63.800 110.400 C 63.664 110.621,61.870 110.800,59.800 110.800 C 57.730 110.800,55.936 110.979,55.800 111.200 C 55.664 111.420,54.224 111.600,52.600 111.600 C 50.976 111.600,49.536 111.780,49.400 112.000 C 49.264 112.220,47.669 112.400,45.856 112.400 C 44.043 112.400,42.388 112.572,42.178 112.782 C 41.968 112.992,40.267 113.217,38.398 113.282 L 35.000 113.400 34.881 114.620 C 34.799 115.452,35.022 116.077,35.581 116.582 C 36.031 116.990,36.400 117.532,36.400 117.787 C 36.400 118.042,36.940 118.768,37.600 119.400 C 38.260 120.032,38.800 120.758,38.800 121.013 C 38.800 121.268,39.160 121.802,39.600 122.200 C 40.040 122.598,40.400 123.132,40.400 123.387 C 40.400 123.642,40.940 124.368,41.600 125.000 C 42.260 125.632,42.800 126.358,42.800 126.613 C 42.800 126.868,43.160 127.402,43.600 127.800 C 44.040 128.198,44.400 128.732,44.400 128.987 C 44.400 129.242,44.940 129.968,45.600 130.600 C 46.260 131.232,46.800 131.952,46.800 132.200 C 46.800 132.448,47.340 133.168,48.000 133.800 C 48.660 134.432,49.200 135.158,49.200 135.413 C 49.200 135.668,49.560 136.202,50.000 136.600 C 50.440 136.998,50.800 137.532,50.800 137.787 C 50.800 138.042,51.340 138.768,52.000 139.400 C 52.660 140.032,53.200 140.758,53.200 141.013 C 53.200 141.268,53.560 141.802,54.000 142.200 C 54.440 142.598,54.800 143.132,54.800 143.387 C 54.800 143.642,55.340 144.368,56.000 145.000 C 56.660 145.632,57.200 146.352,57.200 146.600 C 57.200 146.848,57.740 147.568,58.400 148.200 C 59.060 148.832,59.600 149.558,59.600 149.813 C 59.600 150.068,59.960 150.602,60.400 151.000 C 60.840 151.398,61.200 151.932,61.200 152.187 C 61.200 152.442,61.740 153.168,62.400 153.800 C 63.060 154.432,63.600 155.152,63.600 155.400 C 63.600 155.648,64.140 156.368,64.800 157.000 C 65.460 157.632,66.000 158.358,66.000 158.613 C 66.000 158.868,66.360 159.402,66.800 159.800 C 67.240 160.198,67.600 160.732,67.600 160.987 C 67.600 161.242,68.140 161.968,68.800 162.600 C 69.460 163.232,70.000 163.958,70.000 164.213 C 70.000 164.468,70.360 165.002,70.800 165.400 C 71.240 165.798,71.600 166.332,71.600 166.587 C 71.600 166.842,72.140 167.568,72.800 168.200 C 73.460 168.832,74.000 169.552,74.000 169.800 C 74.000 170.048,74.540 170.768,75.200 171.400 C 75.860 172.032,76.400 172.758,76.400 173.013 C 76.400 173.268,76.760 173.802,77.200 174.200 C 77.640 174.598,78.000 175.132,78.000 175.387 C 78.000 175.642,78.540 176.368,79.200 177.000 C 79.860 177.632,80.400 178.358,80.400 178.613 C 80.400 178.868,80.760 179.402,81.200 179.800 C 81.640 180.198,82.000 180.732,82.000 180.987 C 82.000 181.242,82.540 181.968,83.200 182.600 C 83.860 183.232,84.400 183.952,84.400 184.200 C 84.400 184.448,84.940 185.168,85.600 185.800 C 86.260 186.432,86.800 187.164,86.800 187.426 C 86.800 187.688,87.089 188.142,87.442 188.435 C 87.795 188.727,88.240 189.380,88.432 189.884 L 88.780 190.800 140.166 190.800 C 173.993 190.800,191.637 190.937,191.800 191.200 C 191.963 191.463,209.996 191.600,244.600 191.600 C 279.204 191.600,297.237 191.737,297.400 192.000 C 297.955 192.898,302.393 192.471,302.768 191.484 C 302.960 190.980,303.405 190.327,303.758 190.035 C 304.111 189.742,304.400 189.282,304.400 189.013 C 304.400 188.744,304.760 188.198,305.200 187.800 C 305.640 187.402,306.000 186.862,306.000 186.600 C 306.000 186.338,306.360 185.798,306.800 185.400 C 307.240 185.002,307.600 184.462,307.600 184.200 C 307.600 183.938,307.960 183.398,308.400 183.000 C 308.840 182.602,309.200 182.062,309.200 181.800 C 309.200 181.538,309.560 180.998,310.000 180.600 C 310.440 180.202,310.800 179.668,310.800 179.413 C 310.800 179.158,311.340 178.432,312.000 177.800 C 312.660 177.168,313.200 176.442,313.200 176.187 C 313.200 175.932,313.560 175.398,314.000 175.000 C 314.440 174.602,314.800 174.062,314.800 173.800 C 314.800 173.538,315.160 172.998,315.600 172.600 C 316.040 172.202,316.400 171.662,316.400 171.400 C 316.400 171.138,316.760 170.598,317.200 170.200 C 317.640 169.802,318.000 169.262,318.000 169.000 C 318.000 168.738,318.360 168.198,318.800 167.800 C 319.240 167.402,319.600 166.862,319.600 166.600 C 319.600 166.338,319.960 165.798,320.400 165.400 C 320.840 165.002,321.200 164.468,321.200 164.213 C 321.200 163.958,321.740 163.232,322.400 162.600 C 323.060 161.968,323.600 161.242,323.600 160.987 C 323.600 160.732,323.960 160.198,324.400 159.800 C 324.840 159.402,325.200 158.862,325.200 158.600 C 325.200 158.338,325.560 157.798,326.000 157.400 C 326.440 157.002,326.800 156.462,326.800 156.200 C 326.800 155.938,327.160 155.398,327.600 155.000 C 328.040 154.602,328.400 154.062,328.400 153.800 C 328.400 153.538,328.760 152.998,329.200 152.600 C 329.640 152.202,330.000 151.662,330.000 151.400 C 330.000 151.138,330.360 150.598,330.800 150.200 C 331.240 149.802,331.600 149.268,331.600 149.013 C 331.600 148.758,332.140 148.032,332.800 147.400 C 333.460 146.768,334.000 146.042,334.000 145.787 C 334.000 145.532,334.360 144.998,334.800 144.600 C 335.240 144.202,335.600 143.662,335.600 143.400 C 335.600 143.138,335.960 142.598,336.400 142.200 C 336.840 141.802,337.200 141.262,337.200 141.000 C 337.200 140.738,337.560 140.198,338.000 139.800 C 338.440 139.402,338.800 138.862,338.800 138.600 C 338.800 138.338,339.160 137.798,339.600 137.400 C 340.040 137.002,340.400 136.462,340.400 136.200 C 340.400 135.938,340.760 135.398,341.200 135.000 C 341.640 134.602,342.000 134.068,342.000 133.813 C 342.000 133.558,342.540 132.832,343.200 132.200 C 343.860 131.568,344.400 130.842,344.400 130.587 C 344.400 130.332,344.760 129.798,345.200 129.400 C 345.640 129.002,346.000 128.462,346.000 128.200 C 346.000 127.938,346.360 127.398,346.800 127.000 C 347.240 126.602,347.600 126.062,347.600 125.800 C 347.600 125.538,347.960 124.998,348.400 124.600 C 348.840 124.202,349.200 123.662,349.200 123.400 C 349.200 123.138,349.560 122.598,350.000 122.200 C 350.440 121.802,350.800 121.262,350.800 121.000 C 350.800 120.738,351.160 120.198,351.600 119.800 C 352.040 119.402,352.400 118.865,352.400 118.608 C 352.400 118.350,352.862 117.706,353.426 117.176 C 356.888 113.923,356.347 111.833,352.002 111.682 C 350.133 111.617,348.432 111.392,348.222 111.182 C 348.012 110.972,346.177 110.800,344.144 110.800 C 342.111 110.800,340.336 110.620,340.200 110.400 C 340.064 110.179,338.270 110.000,336.200 110.000 C 334.130 110.000,332.336 109.821,332.200 109.600 C 332.064 109.379,330.270 109.200,328.200 109.200 C 326.130 109.200,324.336 109.021,324.200 108.800 C 324.064 108.580,322.444 108.400,320.600 108.400 C 318.756 108.400,317.136 108.220,317.000 108.000 C 316.864 107.779,315.070 107.600,313.000 107.600 C 310.930 107.600,309.136 107.421,309.000 107.200 C 308.861 106.975,306.937 106.800,304.600 106.800 C 302.263 106.800,300.339 106.625,300.200 106.400 C 300.064 106.180,298.444 106.000,296.600 106.000 C 294.756 106.000,293.136 105.820,293.000 105.600 C 292.864 105.379,291.070 105.200,289.000 105.200 C 286.930 105.200,285.136 105.021,285.000 104.800 C 284.864 104.579,283.070 104.400,281.000 104.400 C 278.930 104.400,277.136 104.221,277.000 104.000 C 276.864 103.779,275.070 103.600,273.000 103.600 C 270.930 103.600,269.136 103.421,269.000 103.200 C 268.858 102.970,266.758 102.800,264.061 102.800 L 259.370 102.800 257.485 104.714 C 256.448 105.766,255.600 106.810,255.600 107.033 C 255.600 107.255,254.880 108.141,254.000 109.000 C 253.120 109.859,252.400 110.758,252.400 110.996 C 252.400 111.235,251.500 112.317,250.400 113.400 C 249.300 114.483,248.400 115.565,248.400 115.804 C 248.400 116.042,247.680 116.941,246.800 117.800 C 245.920 118.659,245.200 119.559,245.200 119.800 C 245.200 120.041,244.480 120.941,243.600 121.800 C 242.720 122.659,242.000 123.558,242.000 123.796 C 242.000 124.035,241.100 125.117,240.000 126.200 C 238.900 127.283,238.000 128.365,238.000 128.604 C 238.000 128.842,237.280 129.741,236.400 130.600 C 235.520 131.459,234.800 132.359,234.800 132.600 C 234.800 132.841,234.080 133.741,233.200 134.600 C 232.320 135.459,231.600 136.359,231.600 136.600 C 231.600 136.841,230.880 137.741,230.000 138.600 C 229.120 139.459,228.400 140.358,228.400 140.596 C 228.400 140.835,227.500 141.917,226.400 143.000 C 225.300 144.083,224.400 145.165,224.400 145.404 C 224.400 145.642,223.680 146.541,222.800 147.400 C 221.920 148.259,221.200 149.159,221.200 149.400 C 221.200 149.641,220.480 150.541,219.600 151.400 C 218.720 152.259,218.000 153.158,218.000 153.396 C 218.000 153.635,217.100 154.717,216.000 155.800 C 214.900 156.883,214.000 157.965,214.000 158.204 C 214.000 158.442,213.280 159.341,212.400 160.200 C 211.520 161.059,210.800 161.959,210.800 162.200 C 210.800 162.441,210.037 163.349,209.105 164.219 C 208.173 165.088,207.783 165.350,208.237 164.800 C 208.691 164.250,210.283 161.324,211.774 158.297 C 213.265 155.271,214.631 152.705,214.808 152.595 C 214.986 152.485,216.422 149.788,218.000 146.600 C 219.578 143.412,221.018 140.712,221.200 140.600 C 221.382 140.488,222.822 137.788,224.400 134.600 C 225.978 131.412,227.418 128.712,227.600 128.600 C 227.782 128.488,229.222 125.788,230.800 122.600 C 232.378 119.412,233.814 116.715,233.992 116.605 C 234.169 116.495,235.535 113.929,237.027 110.903 C 238.519 107.876,239.996 105.097,240.308 104.726 C 241.437 103.387,246.800 92.196,246.800 91.178 C 246.800 90.111,245.347 86.902,244.312 85.681 C 243.994 85.306,243.429 84.333,243.056 83.517 C 242.684 82.701,242.203 81.925,241.988 81.793 C 241.774 81.660,241.239 80.763,240.800 79.800 C 240.361 78.837,239.827 77.941,239.614 77.809 C 239.401 77.677,238.674 76.413,238.000 75.000 C 237.326 73.587,236.599 72.323,236.386 72.191 C 236.173 72.059,235.639 71.163,235.200 70.200 C 234.761 69.237,234.221 68.337,234.000 68.200 C 233.779 68.063,233.239 67.163,232.800 66.200 C 232.361 65.237,231.821 64.337,231.600 64.200 C 231.379 64.063,230.839 63.163,230.400 62.200 C 229.961 61.237,229.421 60.337,229.200 60.200 C 228.979 60.063,228.439 59.163,228.000 58.200 C 227.561 57.237,227.027 56.341,226.814 56.209 C 226.601 56.077,225.874 54.813,225.200 53.400 C 224.526 51.987,223.799 50.723,223.586 50.591 C 223.373 50.459,222.839 49.563,222.400 48.600 C 221.961 47.637,221.421 46.737,221.200 46.600 C 220.979 46.463,220.439 45.563,220.000 44.600 C 219.561 43.637,219.021 42.737,218.800 42.600 C 218.579 42.463,218.039 41.563,217.600 40.600 C 217.161 39.637,216.621 38.737,216.400 38.600 C 216.179 38.463,215.639 37.563,215.200 36.600 C 214.761 35.637,214.227 34.741,214.014 34.609 C 213.801 34.477,213.074 33.213,212.400 31.800 C 211.726 30.387,210.999 29.123,210.786 28.991 C 210.573 28.859,210.039 27.963,209.600 27.000 C 209.161 26.037,208.621 25.137,208.400 25.000 C 208.179 24.863,207.639 23.963,207.200 23.000 C 206.761 22.037,206.221 21.137,206.000 21.000 C 205.779 20.863,205.239 19.963,204.800 19.000 C 204.361 18.037,203.821 17.137,203.600 17.000 C 203.379 16.863,202.839 15.963,202.400 15.000 C 201.961 14.037,201.427 13.141,201.214 13.009 C 201.001 12.877,200.274 11.613,199.600 10.200 C 198.926 8.787,198.189 7.517,197.962 7.377 C 197.736 7.237,197.386 6.690,197.185 6.161 C 196.649 4.750,193.751 4.750,193.215 6.161 " stroke="none" fill="#f4d404" fill-rule="evenodd"></path></g></svg>